<svg xmlns="http://www.w3.org/2000/svg" fill-rule="evenodd" stroke-linejoin="round" stroke-miterlimit="2" clip-rule="evenodd" viewBox="0 0 64 64" id="letter">
  <g transform="translate(-320 -448)">
    <path d="M376 499C377.657 499 379 497.657 379 496L379 495.987C378.996 495.211 378.692 494.449 378.121 493.879L365.657 481.414 355.536 491.536C353.583 493.488 350.417 493.488 348.464 491.536L338.343 481.414 325.879 493.879C325.308 494.449 325.004 495.21 325 495.986L325 496C325 496.796 325.316 497.559 325.879 498.121 326.441 498.684 327.204 499 328 499 331.49 499 376 499 376 499zM379 468.071L367.071 480 379 491.929 379 468.071zM325 491.929L336.929 480 325 468.071 325 491.929z"></path>
    <path d="M379,464.009L379,464C379,462.343 377.657,461 376,461L328,461C326.343,461 325,462.343 325,464L325,464.009C325.002,464.786 325.307,465.55 325.879,466.121C325.879,466.121 349.879,490.121 349.879,490.121C351.05,491.293 352.95,491.293 354.121,490.121C354.121,490.121 378.121,466.121 378.121,466.121C378.693,465.55 378.998,464.786 379,464.009Z"></path>
  </g>
</svg>
