<svg xmlns="http://www.w3.org/2000/svg" viewBox="0 0 24 24"><title>Camera wave</title><g id="Camera_wave" data-name="Camera wave"><path d="M8,9v6a1,1,0,0,0,2,0V9A1,1,0,0,0,8,9Z"/><path d="M12,11v2a1,1,0,0,0,2,0V11A1,1,0,0,0,12,11Z"/><path d="M4,11v2a1,1,0,0,0,2,0V11A1,1,0,0,0,4,11Z"/><path d="M21.65,3c-1.45,0-1.86.91-3.73,3.24A4,4,0,0,0,14,3H4A4,4,0,0,0,0,7V17a4,4,0,0,0,4,4H14a4,4,0,0,0,3.92-3.24l1.89,2.36A2.36,2.36,0,0,0,24,18.65V5.35A2.35,2.35,0,0,0,21.65,3ZM16,17a2,2,0,0,1-2,2H4a2,2,0,0,1-2-2V7A2,2,0,0,1,4,5H14a2,2,0,0,1,2,2Zm6,1.65a.36.36,0,0,1-.62.22L18,14.65V9.35l3.38-4.22a.36.36,0,0,1,.62.22Z"/></g></svg>